<svg width="460" height="270" viewBox="0 0 460 270" fill="none" xmlns="http://www.w3.org/2000/svg">
<path fill-rule="evenodd" clip-rule="evenodd" d="M230 0L110 67.5L180.222 107H277V87H315V87.1875L350 67.5L230 0Z" fill="white"/>
<path fill-rule="evenodd" clip-rule="evenodd" d="M230 183V270L350 202.5V183H230ZM350 107V67.5L315 87.1875V107H350Z" fill="#AAAAAA"/>
<path fill-rule="evenodd" clip-rule="evenodd" d="M110 183V202.5L230 270V183H110ZM110 87H123V107H180.222L110 67.5V87Z" fill="#EAEAEA"/>
<path fill-rule="evenodd" clip-rule="evenodd" d="M110 100H98V120H70V130H60V160H70V170H90V158H72V132H98V170H110V100ZM40 120H10V130H0V160H10V170H30V158H12V132H38V170H50V130H40V120ZM130 120H160V130H170V160H160V170H130V160H120V130H130V120ZM158 158V132H132V158H158ZM190 120H220V132H192V158H220V170H190V160H180V130H190V120ZM390 120H360V130H350V160H360V170H400V158H362V150H388H390H400V130H390V120ZM388 132V140H362V132H388ZM230 120H242V158H268V120H280V160H270V170H240V160H230V120ZM330 120H302V100H290V170H302V132H328V158H310V170H330V160H340V130H330V120ZM448 158H410V170H450V160H460V150H450V140H422V132H460V120H420V130H410V140H420V150H448V158Z" fill="white"/>
</svg>
