<svg width="460" height="70" viewBox="0 0 460 70" fill="none" xmlns="http://www.w3.org/2000/svg">
<path fill-rule="evenodd" clip-rule="evenodd" d="M110 0H98V20H70V30H60V60H70V70H90V58H72V32H98V70H110V0ZM40 20H10V30H0V60H10V70H30V58H12V32H38V70H50V30H40V20ZM130 20H160V30H170V60H160V70H130V60H120V30H130V20ZM158 58V32H132V58H158ZM190 20H220V32H192V58H220V70H190V60H180V30H190V20ZM390 20H360V30H350V60H360V70H400V58H362V50H388H390H400V30H390V20ZM388 32V40H362V32H388ZM230 20H242V58H268V20H280V60H270V70H240V60H230V20ZM330 20H302V0H290V70H302V32H328V58H310V70H330V60H340V30H330V20ZM448 58H410V70H450V60H460V50H450V40H422V32H460V20H420V30H410V40H420V50H448V58Z" fill="white"/>
</svg>
