<svg width="184" height="28" viewBox="0 0 184 28" fill="none" xmlns="http://www.w3.org/2000/svg">
<path fill-rule="evenodd" clip-rule="evenodd" d="M44 0H40V8H28V12H24V24H28V28H36V24H28V12H40V28H44V0ZM16 8H4V12H0V24H4V28H12V24H4V12H16V28H20V12H16V8ZM52 8H64V12H52V8ZM52 24H48V12H52V24ZM64 24V28H52V24H64ZM64 24H68V12H64V24ZM76 8H88V12H76V8ZM76 24H72V12H76V24ZM76 24H88V28H76V24ZM156 8H144V12H140V24H144V28H160V24H144V20H156H160V12H156V8ZM156 12V16H144V12H156ZM92 8H96V24H92V8ZM108 24V28H96V24H108ZM108 24V8H112V24H108ZM132 8H120V0H116V28H120V12H132V24H124V28H132V24H136V12H132V8ZM180 24H164V28H180V24ZM180 20H168V16H180V20ZM168 12V16H164V12H168ZM168 12H184V8H168V12ZM180 20V24H184V20H180Z" fill="white"/>
</svg>
