<svg width="12" height="12" viewBox="0 0 12 12" fill="none" xmlns="http://www.w3.org/2000/svg">
<path d="M3.45238 8.60421V8.53537C3.46032 7.80497 3.53968 7.22371 3.69048 6.79159C3.84127 6.35947 4.05556 6.00956 4.33333 5.74187C4.61111 5.47419 4.94444 5.22753 5.33333 5.00191C5.56746 4.86424 5.77778 4.70172 5.96429 4.51434C6.15079 4.32314 6.29762 4.10325 6.40476 3.85468C6.51587 3.60612 6.57143 3.33078 6.57143 3.02868C6.57143 2.65392 6.48016 2.32887 6.29762 2.05354C6.11508 1.7782 5.87103 1.56597 5.56548 1.41683C5.25992 1.26769 4.92063 1.19312 4.54762 1.19312C4.22222 1.19312 3.90873 1.25813 3.60714 1.38815C3.30556 1.51816 3.05357 1.72275 2.85119 2.00191C2.64881 2.28107 2.53175 2.64627 2.5 3.09751H1C1.03175 2.44742 1.20635 1.89101 1.52381 1.4283C1.84524 0.965583 2.26786 0.611855 2.79167 0.367112C3.31944 0.122371 3.90476 0 4.54762 0C5.24603 0 5.85317 0.133843 6.36905 0.401529C6.88889 0.669216 7.28968 1.03633 7.57143 1.50287C7.85714 1.96941 8 2.50096 8 3.09751C8 3.51816 7.93254 3.89866 7.79762 4.23901C7.66667 4.57935 7.47619 4.88337 7.22619 5.15105C6.98016 5.41874 6.68254 5.65583 6.33333 5.86233C5.98413 6.07266 5.70437 6.29446 5.49405 6.52772C5.28373 6.75717 5.13095 7.03059 5.03571 7.34799C4.94048 7.66539 4.88889 8.06119 4.88095 8.53537V8.60421H3.45238ZM4.21429 12C3.92063 12 3.66865 11.8987 3.45833 11.696C3.24802 11.4933 3.14286 11.2505 3.14286 10.9675C3.14286 10.6845 3.24802 10.4417 3.45833 10.239C3.66865 10.0363 3.92063 9.93499 4.21429 9.93499C4.50794 9.93499 4.75992 10.0363 4.97024 10.239C5.18056 10.4417 5.28571 10.6845 5.28571 10.9675C5.28571 11.1549 5.23611 11.327 5.1369 11.4837C5.04167 11.6405 4.9127 11.7667 4.75 11.8623C4.59127 11.9541 4.4127 12 4.21429 12Z" fill="white"/>
</svg>
