<svg width="480" height="90" viewBox="0 0 480 90" fill="none" xmlns="http://www.w3.org/2000/svg">
<path d="M230 52H32V58H230V52Z" fill="url(#paint0_linear_81_77)"/>
<path d="M328 52H322V58H328V52Z" fill="url(#paint1_linear_81_77)"/>
<mask id="path-2-outside-1_81_77" maskUnits="userSpaceOnUse" x="0" y="0" width="480" height="90" fill="black">
<rect fill="white" width="480" height="90"/>
<path fill-rule="evenodd" clip-rule="evenodd" d="M120 10H108V30H80V40H70V70H80V80H100V68H82V42H108V80H120V10ZM50 30H20V40H10V70H20V80H40V68H22V42H48V80H60V40H50V30ZM140 30H170V40H180V70H170V80H140V70H130V40H140V30ZM168 68V42H142V68H168ZM200 30H230V42H202V68H230V80H200V70H190V40H200V30ZM400 30H370V40H360V70H370V80H410V68H372V60H398H400H410V40H400V30ZM398 42V50H372V42H398ZM240 30H252V68H278V30H290V70H280V80H250V70H240V30ZM340 30H312V10H300V80H312V42H338V68H320V80H340V70H350V40H340V30ZM458 68H420V80H460V70H470V60H460V50H432V42H470V30H430V40H420V50H430V60H458V68Z"/>
</mask>
<path fill-rule="evenodd" clip-rule="evenodd" d="M120 10H108V30H80V40H70V70H80V80H100V68H82V42H108V80H120V10ZM50 30H20V40H10V70H20V80H40V68H22V42H48V80H60V40H50V30ZM140 30H170V40H180V70H170V80H140V70H130V40H140V30ZM168 68V42H142V68H168ZM200 30H230V42H202V68H230V80H200V70H190V40H200V30ZM400 30H370V40H360V70H370V80H410V68H372V60H398H400H410V40H400V30ZM398 42V50H372V42H398ZM240 30H252V68H278V30H290V70H280V80H250V70H240V30ZM340 30H312V10H300V80H312V42H338V68H320V80H340V70H350V40H340V30ZM458 68H420V80H460V70H470V60H460V50H432V42H470V30H430V40H420V50H430V60H458V68Z" fill="white"/>
<path fill-rule="evenodd" clip-rule="evenodd" d="M120 10H108V30H80V40H70V70H80V80H100V68H82V42H108V80H120V10ZM50 30H20V40H10V70H20V80H40V68H22V42H48V80H60V40H50V30ZM140 30H170V40H180V70H170V80H140V70H130V40H140V30ZM168 68V42H142V68H168ZM200 30H230V42H202V68H230V80H200V70H190V40H200V30ZM400 30H370V40H360V70H370V80H410V68H372V60H398H400H410V40H400V30ZM398 42V50H372V42H398ZM240 30H252V68H278V30H290V70H280V80H250V70H240V30ZM340 30H312V10H300V80H312V42H338V68H320V80H340V70H350V40H340V30ZM458 68H420V80H460V70H470V60H460V50H432V42H470V30H430V40H420V50H430V60H458V68Z" stroke="url(#paint2_linear_81_77)" stroke-width="20" mask="url(#path-2-outside-1_81_77)"/>
<defs>
<linearGradient id="paint0_linear_81_77" x1="180" y1="52" x2="180" y2="58" gradientUnits="userSpaceOnUse">
<stop stop-color="#060606"/>
<stop offset="1" stop-color="#050505"/>
</linearGradient>
<linearGradient id="paint1_linear_81_77" x1="180" y1="52" x2="180" y2="58" gradientUnits="userSpaceOnUse">
<stop stop-color="#060606"/>
<stop offset="1" stop-color="#050505"/>
</linearGradient>
<linearGradient id="paint2_linear_81_77" x1="240" y1="10" x2="240" y2="80" gradientUnits="userSpaceOnUse">
<stop stop-color="#101010"/>
<stop offset="1"/>
</linearGradient>
</defs>
</svg>
