<svg width="480" height="294" viewBox="0 0 480 294" fill="none" xmlns="http://www.w3.org/2000/svg">
<path d="M242.451 7.64212L240 6.26326L237.549 7.64212L117.549 75.1421L115 76.5758V79.5V214.5V217.424L117.549 218.858L237.549 286.358L240 287.737L242.451 286.358L362.451 218.858L365 217.424V214.5V79.5V76.5758L362.451 75.1421L242.451 7.64212Z" stroke="url(#paint0_linear_81_68)" stroke-width="10"/>
<path d="M120 79.5L240 12L360 79.5L240 147L120 79.5Z" fill="white"/>
<path d="M240 147V282L360 214.5V79.5L240 147Z" fill="#AAAAAA"/>
<path d="M120 214.5V79.5L240 147V282L120 214.5Z" fill="#EAEAEA"/>
<path d="M230 154H32V160H230V154Z" fill="url(#paint1_linear_81_68)"/>
<path d="M328 154H322V160H328V154Z" fill="url(#paint2_linear_81_68)"/>
<mask id="path-6-outside-1_81_68" maskUnits="userSpaceOnUse" x="0" y="102" width="480" height="90" fill="black">
<rect fill="white" y="102" width="480" height="90"/>
<path fill-rule="evenodd" clip-rule="evenodd" d="M120 112H108V132H80V142H70V172H80V182H100V170H82V144H108V182H120V112ZM50 132H20V142H10V172H20V182H40V170H22V144H48V182H60V142H50V132ZM140 132H170V142H180V172H170V182H140V172H130V142H140V132ZM168 170V144H142V170H168ZM200 132H230V144H202V170H230V182H200V172H190V142H200V132ZM400 132H370V142H360V172H370V182H410V170H372V162H398H400H410V142H400V132ZM398 144V152H372V144H398ZM240 132H252V170H278V132H290V172H280V182H250V172H240V132ZM340 132H312V112H300V182H312V144H338V170H320V182H340V172H350V142H340V132ZM458 170H420V182H460V172H470V162H460V152H432V144H470V132H430V142H420V152H430V162H458V170Z"/>
</mask>
<path fill-rule="evenodd" clip-rule="evenodd" d="M120 112H108V132H80V142H70V172H80V182H100V170H82V144H108V182H120V112ZM50 132H20V142H10V172H20V182H40V170H22V144H48V182H60V142H50V132ZM140 132H170V142H180V172H170V182H140V172H130V142H140V132ZM168 170V144H142V170H168ZM200 132H230V144H202V170H230V182H200V172H190V142H200V132ZM400 132H370V142H360V172H370V182H410V170H372V162H398H400H410V142H400V132ZM398 144V152H372V144H398ZM240 132H252V170H278V132H290V172H280V182H250V172H240V132ZM340 132H312V112H300V182H312V144H338V170H320V182H340V172H350V142H340V132ZM458 170H420V182H460V172H470V162H460V152H432V144H470V132H430V142H420V152H430V162H458V170Z" fill="white"/>
<path fill-rule="evenodd" clip-rule="evenodd" d="M120 112H108V132H80V142H70V172H80V182H100V170H82V144H108V182H120V112ZM50 132H20V142H10V172H20V182H40V170H22V144H48V182H60V142H50V132ZM140 132H170V142H180V172H170V182H140V172H130V142H140V132ZM168 170V144H142V170H168ZM200 132H230V144H202V170H230V182H200V172H190V142H200V132ZM400 132H370V142H360V172H370V182H410V170H372V162H398H400H410V142H400V132ZM398 144V152H372V144H398ZM240 132H252V170H278V132H290V172H280V182H250V172H240V132ZM340 132H312V112H300V182H312V144H338V170H320V182H340V172H350V142H340V132ZM458 170H420V182H460V172H470V162H460V152H432V144H470V132H430V142H420V152H430V162H458V170Z" stroke="url(#paint3_linear_81_68)" stroke-width="20" mask="url(#path-6-outside-1_81_68)"/>
<defs>
<linearGradient id="paint0_linear_81_68" x1="240" y1="12" x2="240" y2="282" gradientUnits="userSpaceOnUse">
<stop stop-color="#101010"/>
<stop offset="1"/>
</linearGradient>
<linearGradient id="paint1_linear_81_68" x1="180" y1="154" x2="180" y2="160" gradientUnits="userSpaceOnUse">
<stop stop-color="#060606"/>
<stop offset="1" stop-color="#050505"/>
</linearGradient>
<linearGradient id="paint2_linear_81_68" x1="180" y1="154" x2="180" y2="160" gradientUnits="userSpaceOnUse">
<stop stop-color="#060606"/>
<stop offset="1" stop-color="#050505"/>
</linearGradient>
<linearGradient id="paint3_linear_81_68" x1="240" y1="112" x2="240" y2="182" gradientUnits="userSpaceOnUse">
<stop stop-color="#101010"/>
<stop offset="1"/>
</linearGradient>
</defs>
</svg>
