<svg width="480" height="294" viewBox="0 0 480 294" fill="none" xmlns="http://www.w3.org/2000/svg">
<path d="M117.549 75.1421L115 76.5758V79.5V214.5V217.424L117.549 218.858L237.549 286.358L240 287.737L242.451 286.358L362.451 218.858L365 217.424V214.5V79.5V76.5758L362.451 75.1421L242.451 7.64212L240 6.26326L237.549 7.64212L117.549 75.1421Z" stroke="url(#paint0_linear_132_174)" stroke-width="10"/>
<path d="M120 79.5L240 12L360 79.5L240 147L120 79.5Z" fill="white"/>
<path d="M240 147V282L360 214.5V79.5L240 147Z" fill="#AAAAAA"/>
<path d="M120 214.5V79.5L240 147V282L120 214.5Z" fill="#EAEAEA"/>
<path d="M230 154H32V160H230V154Z" fill="url(#paint1_linear_132_174)"/>
<path d="M328 154H322V160H328V154Z" fill="url(#paint2_linear_132_174)"/>
<mask id="path-6-outside-1_132_174" maskUnits="userSpaceOnUse" x="0" y="102" width="480" height="90" fill="black">
<rect fill="white" y="102" width="480" height="90"/>
<path fill-rule="evenodd" clip-rule="evenodd" d="M108 112H120V182H108V144H82V170H100V182H80V172H70V142H80V132H108V112ZM50 132H20V142H10V172H20V182H50V172H60V142H50V132ZM22 170H48V144H22V170ZM140 142H130V172H140V182H160V170H142V144H168V182H180V142H170V132H140V142ZM190 142H200V132H230V144H202V170H230V182H200V172H190V142ZM278 152H252V144H278V152ZM290 162H252V170H290V182H250V172H240V142H250V132H280V142H290V152V162ZM300 112H312V132H340V142H350V172H340V182H320V170H338V144H312V182H300V112ZM372 132H360V172H370V182H400V172H410V132H398V170H372V132ZM460 172H470V162H460V152H432V144H470V132H430V142H420V152H430V162H458V170H420V182H460V172Z"/>
</mask>
<path fill-rule="evenodd" clip-rule="evenodd" d="M108 112H120V182H108V144H82V170H100V182H80V172H70V142H80V132H108V112ZM50 132H20V142H10V172H20V182H50V172H60V142H50V132ZM22 170H48V144H22V170ZM140 142H130V172H140V182H160V170H142V144H168V182H180V142H170V132H140V142ZM190 142H200V132H230V144H202V170H230V182H200V172H190V142ZM278 152H252V144H278V152ZM290 162H252V170H290V182H250V172H240V142H250V132H280V142H290V152V162ZM300 112H312V132H340V142H350V172H340V182H320V170H338V144H312V182H300V112ZM372 132H360V172H370V182H400V172H410V132H398V170H372V132ZM460 172H470V162H460V152H432V144H470V132H430V142H420V152H430V162H458V170H420V182H460V172Z" fill="white"/>
<path fill-rule="evenodd" clip-rule="evenodd" d="M108 112H120V182H108V144H82V170H100V182H80V172H70V142H80V132H108V112ZM50 132H20V142H10V172H20V182H50V172H60V142H50V132ZM22 170H48V144H22V170ZM140 142H130V172H140V182H160V170H142V144H168V182H180V142H170V132H140V142ZM190 142H200V132H230V144H202V170H230V182H200V172H190V142ZM278 152H252V144H278V152ZM290 162H252V170H290V182H250V172H240V142H250V132H280V142H290V152V162ZM300 112H312V132H340V142H350V172H340V182H320V170H338V144H312V182H300V112ZM372 132H360V172H370V182H400V172H410V132H398V170H372V132ZM460 172H470V162H460V152H432V144H470V132H430V142H420V152H430V162H458V170H420V182H460V172Z" stroke="url(#paint3_linear_132_174)" stroke-width="20" mask="url(#path-6-outside-1_132_174)"/>
<defs>
<linearGradient id="paint0_linear_132_174" x1="240" y1="12" x2="240" y2="282" gradientUnits="userSpaceOnUse">
<stop stop-color="#101010"/>
<stop offset="1"/>
</linearGradient>
<linearGradient id="paint1_linear_132_174" x1="180" y1="154" x2="180" y2="160" gradientUnits="userSpaceOnUse">
<stop stop-color="#060606"/>
<stop offset="1" stop-color="#050505"/>
</linearGradient>
<linearGradient id="paint2_linear_132_174" x1="180" y1="154" x2="180" y2="160" gradientUnits="userSpaceOnUse">
<stop stop-color="#060606"/>
<stop offset="1" stop-color="#050505"/>
</linearGradient>
<linearGradient id="paint3_linear_132_174" x1="240" y1="112" x2="240" y2="182" gradientUnits="userSpaceOnUse">
<stop stop-color="#101010"/>
<stop offset="1"/>
</linearGradient>
</defs>
</svg>
