<svg width="24" height="24" viewBox="0 0 24 24" fill="none" xmlns="http://www.w3.org/2000/svg">
<g clip-path="url(#clip0_745_656)">
<path fill-rule="evenodd" clip-rule="evenodd" d="M13 1V11H11V1H13ZM11 13V11H1V13H11ZM13 13V11H23V13H13ZM13 13H11V23H13V13Z" fill="black" fill-opacity="0.5"/>
<path fill-rule="evenodd" clip-rule="evenodd" d="M0 10H10V0H14V10H24V14H14V24H10V14H0V10ZM1 11H11V1H13V11H23V13H13V23H11V13H1V11Z" fill="white" fill-opacity="0.5"/>
<path d="M13 11H11V13H13V11Z" fill="white" fill-opacity="0.5"/>
</g>
<defs>
<clipPath id="clip0_745_656">
<rect width="24" height="24" fill="white"/>
</clipPath>
</defs>
</svg>
