<svg width="33" height="33" viewBox="0 0 33 33" fill="none" xmlns="http://www.w3.org/2000/svg">
<path fill-rule="evenodd" clip-rule="evenodd" d="M32 1H1V32H2V33H33V2H32V1ZM6 6H28V11H27V10H24V11H23V12H22V11H21V10H6V6ZM7 23H6V28H28V24H25V23H24V22H23V21H22V24H7V23Z" fill="black"/>
<path fill-rule="evenodd" clip-rule="evenodd" d="M30 5H5V30H30V5ZM3 3V32H32V3H3Z" fill="#092D87"/>
<path fill-rule="evenodd" clip-rule="evenodd" d="M29 4H4V29H29V4ZM2 2V31H31V2H2Z" fill="#98A3FF"/>
<path fill-rule="evenodd" clip-rule="evenodd" d="M10 14H19V21H10V14ZM8 23V12H21V17H22V16H23V15H24V14H25V13H26V12H27V23H26V22H25V21H24V20H23V19H22V18H21V23H8Z" fill="#4C64A1"/>
<path fill-rule="evenodd" clip-rule="evenodd" d="M9 13H18V20H9V13ZM7 22V11H20V16H21V15H22V14H23V13H24V12H25V11H26V22H25V21H24V20H23V19H22V18H21V17H20V22H7Z" fill="white"/>
</svg>
