<svg width="33" height="33" viewBox="0 0 33 33" fill="none" xmlns="http://www.w3.org/2000/svg">
<path fill-rule="evenodd" clip-rule="evenodd" d="M2 2V1H5V2H6V3H7V4H8V5H9V6H10V7H11V8H12V9H13V10H14V8H18V9H19V16H32V17H33V33H17V32H16V19H9V18H8V14H10V13H9V12H8V11H7V10H6V9H5V8H4V7H3V6H2V5H1V2H2ZM28 28V21H21V28H28Z" fill="black"/>
<path fill-rule="evenodd" clip-rule="evenodd" d="M4 3V4H3V5H4V6H5V7H6V8H7V9H8V10H9V11H10V12H11V13H12V14H13V15H14V16H10V18H18V10H16V14H15V13H14V12H13V11H12V10H11V9H10V8H9V7H8V6H7V5H6V4H5V3H4Z" fill="#4C64A1"/>
<path fill-rule="evenodd" clip-rule="evenodd" d="M30 20H20V30H30V20ZM18 18V32H32V18H18Z" fill="#092D87"/>
<path fill-rule="evenodd" clip-rule="evenodd" d="M29 19H19V29H29V19ZM17 17V31H31V17H17Z" fill="#98A3FF"/>
<path fill-rule="evenodd" clip-rule="evenodd" d="M3 2V3H2V4H3V5H4V6H5V7H6V8H7V9H8V10H9V11H10V12H11V13H12V14H13V15H9V17H17V9H15V13H14V12H13V11H12V10H11V9H10V8H9V7H8V6H7V5H6V4H5V3H4V2H3Z" fill="white"/>
</svg>
