<svg width="16" height="16" viewBox="0 0 16 16" fill="none" xmlns="http://www.w3.org/2000/svg">
<path fill-rule="evenodd" clip-rule="evenodd" d="M2 1H3H4V0H5H6H8H9H10V1H11V0H12H13H14V1H15V2V3V7V8H16V9V10V11V12H15V13V14H14V15H13H12V16H11H10H7H6H5V15H4H3V14H2V13H1V12V11H0V10V9V6V5V4H1V3V2H2V1ZM10 9H9H8H7V8H6V9H7V10H8H10V9Z" fill="black"/>
<path d="M6 3V2H10V3H12V4H13V2H14V8H8V7H10V6H9V5H7V6H6V7H5V10H6V11H7V12H12V11H13V10H14V9H15V11H14V13H13V14H11V15H6V14H4V13H3V11H2V6H3V4H4V3H6Z" fill="#FF3D23"/>
<path d="M5 2V1H9V2H11V3H12V1H13V7H7V6H9V5H8V4H6V5H5V6H4V9H5V10H6V11H11V10H12V9H13V8H14V10H13V12H12V13H10V14H5V13H3V12H2V10H1V5H2V3H3V2H5Z" fill="#D3FF23"/>
</svg>
