<svg width="490" height="294" viewBox="0 0 490 294" fill="none" xmlns="http://www.w3.org/2000/svg">
<path d="M122.549 75.1421L120 76.5758V79.5V214.5V217.424L122.549 218.858L242.549 286.358L245 287.737L247.451 286.358L367.451 218.858L370 217.424V214.5V79.5V76.5758L367.451 75.1421L247.451 7.64212L245 6.26326L242.549 7.64212L122.549 75.1421Z" stroke="url(#paint0_linear_133_233)" stroke-width="10"/>
<path d="M125 79.5L245 12L365 79.5L245 147L125 79.5Z" fill="white"/>
<path d="M245 147V282L365 214.5V79.5L245 147Z" fill="#AAAAAA"/>
<path d="M125 214.5V79.5L245 147V282L125 214.5Z" fill="#EAEAEA"/>
<path d="M458 154H32V160H458V154Z" fill="url(#paint1_linear_133_233)"/>
<mask id="path-6-outside-1_133_233" maskUnits="userSpaceOnUse" x="0" y="122" width="490" height="70" fill="black">
<rect fill="white" y="122" width="490" height="70"/>
<path fill-rule="evenodd" clip-rule="evenodd" d="M20 132H50V142H60V182H48V144H22V170H40V182H20V172H10V142H20V132ZM80 132H110V142H120V182H108V144H82V170H100V182H80V172H70V142H80V132ZM170 132H140V142H130V172H140V182H160V170H142V144H168V182H180V142H170V132ZM200 132H230V142H240V182H228V144H202V170H220V182H200V172H190V142H200V132ZM290 132H260V142H250V172H260V182H280V170H262V144H288V182H300V142H290V132ZM320 132H350V142H360V182H348V144H322V170H340V182H320V172H310V142H320V132ZM410 132H380V142H370V172H380V182H400V170H382V144H408V182H420V142H410V132ZM440 132H470V142H480V182H468V144H442V170H460V182H440V172H430V142H440V132Z"/>
</mask>
<path fill-rule="evenodd" clip-rule="evenodd" d="M20 132H50V142H60V182H48V144H22V170H40V182H20V172H10V142H20V132ZM80 132H110V142H120V182H108V144H82V170H100V182H80V172H70V142H80V132ZM170 132H140V142H130V172H140V182H160V170H142V144H168V182H180V142H170V132ZM200 132H230V142H240V182H228V144H202V170H220V182H200V172H190V142H200V132ZM290 132H260V142H250V172H260V182H280V170H262V144H288V182H300V142H290V132ZM320 132H350V142H360V182H348V144H322V170H340V182H320V172H310V142H320V132ZM410 132H380V142H370V172H380V182H400V170H382V144H408V182H420V142H410V132ZM440 132H470V142H480V182H468V144H442V170H460V182H440V172H430V142H440V132Z" fill="white"/>
<path fill-rule="evenodd" clip-rule="evenodd" d="M20 132H50V142H60V182H48V144H22V170H40V182H20V172H10V142H20V132ZM80 132H110V142H120V182H108V144H82V170H100V182H80V172H70V142H80V132ZM170 132H140V142H130V172H140V182H160V170H142V144H168V182H180V142H170V132ZM200 132H230V142H240V182H228V144H202V170H220V182H200V172H190V142H200V132ZM290 132H260V142H250V172H260V182H280V170H262V144H288V182H300V142H290V132ZM320 132H350V142H360V182H348V144H322V170H340V182H320V172H310V142H320V132ZM410 132H380V142H370V172H380V182H400V170H382V144H408V182H420V142H410V132ZM440 132H470V142H480V182H468V144H442V170H460V182H440V172H430V142H440V132Z" stroke="url(#paint2_linear_133_233)" stroke-width="20" mask="url(#path-6-outside-1_133_233)"/>
<defs>
<linearGradient id="paint0_linear_133_233" x1="245" y1="12" x2="245" y2="282" gradientUnits="userSpaceOnUse">
<stop stop-color="#101010"/>
<stop offset="1"/>
</linearGradient>
<linearGradient id="paint1_linear_133_233" x1="185" y1="154" x2="185" y2="160" gradientUnits="userSpaceOnUse">
<stop stop-color="#090909"/>
<stop offset="1" stop-color="#070707"/>
</linearGradient>
<linearGradient id="paint2_linear_133_233" x1="245" y1="132" x2="245" y2="182" gradientUnits="userSpaceOnUse">
<stop stop-color="#101010"/>
<stop offset="1"/>
</linearGradient>
</defs>
</svg>
