<svg width="260" height="294" viewBox="0 0 260 294" fill="none" xmlns="http://www.w3.org/2000/svg">
<path d="M132.451 7.64212L130 6.26326L127.549 7.64212L7.54869 75.1421L5 76.5758V79.5V214.5V217.424L7.54869 218.858L127.549 286.358L130 287.737L132.451 286.358L252.451 218.858L255 217.424V214.5V79.5V76.5758L252.451 75.1421L132.451 7.64212Z" fill="url(#paint0_linear_123_43)" stroke="url(#paint1_linear_123_43)" stroke-width="10"/>
<path d="M15 211.576V82.4242L130 17.7367L245 82.4242V211.576L130 276.263L15 211.576Z" stroke="white" stroke-width="10"/>
<mask id="mask0_123_43" style="mask-type:alpha" maskUnits="userSpaceOnUse" x="10" y="12" width="240" height="270">
<path fill-rule="evenodd" clip-rule="evenodd" d="M10 79.5L130 12L250 79.5V214.5L130 282L10 214.5V79.5Z" fill="white"/>
</mask>
<g mask="url(#mask0_123_43)">
<path fill-rule="evenodd" clip-rule="evenodd" d="M139 219L171 201L203 219V255L171 273L139 255V219Z" fill="white" fill-opacity="0.06"/>
<path fill-rule="evenodd" clip-rule="evenodd" d="M195 161L220 147L245 161V189L220 203L195 189V161Z" fill="white" fill-opacity="0.06"/>
<path fill-rule="evenodd" clip-rule="evenodd" d="M18 78.5L35 69L52 78.5V97.5L35 107L18 97.5V78.5Z" fill="white" fill-opacity="0.06"/>
<path fill-rule="evenodd" clip-rule="evenodd" d="M79 209.5L96 200L113 209.5V228.5L96 238L79 228.5V209.5Z" fill="white" fill-opacity="0.06"/>
<path fill-rule="evenodd" clip-rule="evenodd" d="M79 209.5L96 200L113 209.5V228.5L96 238L79 228.5V209.5Z" fill="white" fill-opacity="0.06"/>
<path fill-rule="evenodd" clip-rule="evenodd" d="M158 181L203 156L248 181V231L203 256L158 231V181Z" fill="white" fill-opacity="0.06"/>
<path fill-rule="evenodd" clip-rule="evenodd" d="M16 196.5L55 175L94 196.5V239.5L55 261L16 239.5V196.5Z" fill="white" fill-opacity="0.06"/>
<path fill-rule="evenodd" clip-rule="evenodd" d="M194 121.5L222 106L250 121.5V152.5L222 168L194 152.5V121.5Z" fill="white" fill-opacity="0.06"/>
<path fill-rule="evenodd" clip-rule="evenodd" d="M45 46L81 26L117 46V86L81 106L45 86V46Z" fill="white" fill-opacity="0.06"/>
<path fill-rule="evenodd" clip-rule="evenodd" d="M103 145L137 126L171 145V183L137 202L103 183V145Z" fill="white" fill-opacity="0.06"/>
<path fill-rule="evenodd" clip-rule="evenodd" d="M70 88.5L94 75L118 88.5V115.5L94 129L70 115.5V88.5Z" fill="white" fill-opacity="0.06"/>
<path fill-rule="evenodd" clip-rule="evenodd" d="M144 86.5L179 67L214 86.5V125.5L179 145L144 125.5V86.5Z" fill="white" fill-opacity="0.06"/>
<path fill-rule="evenodd" clip-rule="evenodd" d="M61 149L84 136L107 149V175L84 188L61 175V149Z" fill="white" fill-opacity="0.06"/>
<path fill-rule="evenodd" clip-rule="evenodd" d="M101 235L124 222L147 235V261L124 274L101 261V235Z" fill="white" fill-opacity="0.06"/>
<path fill-rule="evenodd" clip-rule="evenodd" d="M42 -4L83 -27L124 -4V42L83 65L42 42V-4Z" fill="white" fill-opacity="0.06"/>
<path fill-rule="evenodd" clip-rule="evenodd" d="M-48 146L7 115L62 146V208L7 239L-48 208V146Z" fill="white" fill-opacity="0.06"/>
<path fill-rule="evenodd" clip-rule="evenodd" d="M130 40.5L170 18L210 40.5V85.5L170 108L130 85.5V40.5Z" fill="white" fill-opacity="0.06"/>
</g>
<g filter="url(#filter0_d_123_43)">
<path d="M145 102H133V122H105V132H95V162H105V172H125V160H107V134H133V172H145V102Z" fill="white"/>
<path d="M75 122H45V132H35V162H45V172H65V160H47V134H73V172H85V132H75V122Z" fill="white"/>
<path fill-rule="evenodd" clip-rule="evenodd" d="M195 122H165V132H155V162H165V172H195V162H205V132H195V122ZM193 160V134H167V160H193Z" fill="white"/>
<path fill-rule="evenodd" clip-rule="evenodd" d="M225 102H215V152H225V102ZM225 160H215V172H225V160Z" fill="white"/>
</g>
<defs>
<filter id="filter0_d_123_43" x="20" y="91" width="220" height="100" filterUnits="userSpaceOnUse" color-interpolation-filters="sRGB">
<feFlood flood-opacity="0" result="BackgroundImageFix"/>
<feColorMatrix in="SourceAlpha" type="matrix" values="0 0 0 0 0 0 0 0 0 0 0 0 0 0 0 0 0 0 127 0" result="hardAlpha"/>
<feOffset dy="4"/>
<feGaussianBlur stdDeviation="7.5"/>
<feComposite in2="hardAlpha" operator="out"/>
<feColorMatrix type="matrix" values="0 0 0 0 0 0 0 0 0 0 0 0 0 0 0 0 0 0 1 0"/>
<feBlend mode="normal" in2="BackgroundImageFix" result="effect1_dropShadow_123_43"/>
<feBlend mode="normal" in="SourceGraphic" in2="effect1_dropShadow_123_43" result="shape"/>
</filter>
<linearGradient id="paint0_linear_123_43" x1="130" y1="12" x2="130" y2="282" gradientUnits="userSpaceOnUse">
<stop stop-color="#101010"/>
<stop offset="1"/>
</linearGradient>
<linearGradient id="paint1_linear_123_43" x1="130" y1="12" x2="130" y2="282" gradientUnits="userSpaceOnUse">
<stop stop-color="#101010"/>
<stop offset="1"/>
</linearGradient>
</defs>
</svg>
