<svg width="480" height="90" viewBox="0 0 480 90" fill="none" xmlns="http://www.w3.org/2000/svg">
<path d="M180 22V28C180 29.1046 180.895 30 182 30H188C189.105 30 190 29.1046 190 28V22C190 20.8954 190.895 20 192 20H260C261.105 20 262 20.8954 262 22V56C262 57.1046 262.895 58 264 58H266C267.105 58 268 57.1046 268 56V22C268 20.8954 268.895 20 270 20H288C289.105 20 290 19.1046 290 18V2C290 0.895431 290.895 0 292 0H320C321.105 0 322 0.895431 322 2V18C322 19.1046 322.895 20 324 20H348C349.105 20 350 20.8954 350 22V28C350 29.1046 350.895 30 352 30H358C359.105 30 360 29.1046 360 28V22C360 20.8954 360.895 20 362 20H408C409.105 20 410 20.8954 410 22V28C410 29.1046 410.895 30 412 30H418C419.105 30 420 29.1046 420 28V22C420 20.8954 420.895 20 422 20H478C479.105 20 480 20.8954 480 22V78C480 79.1046 479.105 80 478 80H472C470.895 80 470 80.8954 470 82V88C470 89.1046 469.105 90 468 90H362C360.895 90 360 89.1046 360 88V82C360 80.8954 359.105 80 358 80H352C350.895 80 350 80.8954 350 82V88C350 89.1046 349.105 90 348 90H192C190.895 90 190 89.1046 190 88V82C190 80.8954 189.105 80 188 80H182C180.895 80 180 80.8954 180 82V88C180 89.1046 179.105 90 178 90H12C10.8954 90 10 89.1046 10 88V82C10 80.8954 9.10457 80 8 80H2C0.895431 80 0 79.1046 0 78V32C0 30.8954 0.89543 30 2 30H8C9.10457 30 10 29.1046 10 28V22C10 20.8954 10.8954 20 12 20H58C59.1046 20 60 20.8954 60 22V28C60 29.1046 60.8954 30 62 30H68C69.1046 30 70 29.1046 70 28V22C70 20.8954 70.8954 20 72 20H96C97.1046 20 98 19.1046 98 18V2C98 0.895431 98.8954 0 100 0H128C129.105 0 130 0.895431 130 2V18C130 19.1046 130.895 20 132 20H178C179.105 20 180 20.8954 180 22Z" fill="url(#paint0_linear_201_61)"/>
<path fill-rule="evenodd" clip-rule="evenodd" d="M120 12C120 10.8954 119.105 10 118 10H110C108.895 10 108 10.8954 108 12V28C108 29.1046 107.105 30 106 30H82C80.8954 30 80 30.8954 80 32V38C80 39.1046 79.1046 40 78 40H72C70.8954 40 70 40.8954 70 42V68C70 69.1046 70.8954 70 72 70H78C79.1046 70 80 70.8954 80 72V78C80 79.1046 80.8954 80 82 80H98C99.1046 80 100 79.1046 100 78V70C100 68.8954 99.1046 68 98 68H84C82.8954 68 82 67.1046 82 66V44C82 42.8954 82.8954 42 84 42H106C107.105 42 108 42.8954 108 44V78C108 79.1046 108.895 80 110 80H118C119.105 80 120 79.1046 120 78V12ZM50 32C50 30.8954 49.1046 30 48 30H22C20.8954 30 20 30.8954 20 32V38C20 39.1046 19.1046 40 18 40H12C10.8954 40 10 40.8954 10 42V68C10 69.1046 10.8954 70 12 70H18C19.1046 70 20 70.8954 20 72V78C20 79.1046 20.8954 80 22 80H38C39.1046 80 40 79.1046 40 78V70C40 68.8954 39.1046 68 38 68H24C22.8954 68 22 67.1046 22 66V44C22 42.8954 22.8954 42 24 42H46C47.1046 42 48 42.8954 48 44V78C48 79.1046 48.8954 80 50 80H58C59.1046 80 60 79.1046 60 78V42C60 40.8954 59.1046 40 58 40H52C50.8954 40 50 39.1046 50 38V32ZM140 32C140 30.8954 140.895 30 142 30H168C169.105 30 170 30.8954 170 32V38C170 39.1046 170.895 40 172 40H178C179.105 40 180 40.8954 180 42V68C180 69.1046 179.105 70 178 70H172C170.895 70 170 70.8954 170 72V78C170 79.1046 169.105 80 168 80H142C140.895 80 140 79.1046 140 78V72C140 70.8954 139.105 70 138 70H132C130.895 70 130 69.1046 130 68V42C130 40.8954 130.895 40 132 40H138C139.105 40 140 39.1046 140 38V32ZM166 68C167.105 68 168 67.1046 168 66V44C168 42.8954 167.105 42 166 42H144C142.895 42 142 42.8954 142 44V66C142 67.1046 142.895 68 144 68H166ZM200 32C200 30.8954 200.895 30 202 30H228C229.105 30 230 30.8954 230 32V40C230 41.1046 229.105 42 228 42H204C202.895 42 202 42.8954 202 44V66C202 67.1046 202.895 68 204 68H228C229.105 68 230 68.8954 230 70V78C230 79.1046 229.105 80 228 80H202C200.895 80 200 79.1046 200 78V72C200 70.8954 199.105 70 198 70H192C190.895 70 190 69.1046 190 68V42C190 40.8954 190.895 40 192 40H198C199.105 40 200 39.1046 200 38V32ZM400 32C400 30.8954 399.105 30 398 30H372C370.895 30 370 30.8954 370 32V38C370 39.1046 369.105 40 368 40H362C360.895 40 360 40.8954 360 42V68C360 69.1046 360.895 70 362 70H368C369.105 70 370 70.8954 370 72V78C370 79.1046 370.895 80 372 80H408C409.105 80 410 79.1046 410 78V70C410 68.8954 409.105 68 408 68H374C372.895 68 372 67.1046 372 66V62C372 60.8954 372.895 60 374 60H398H400H408C409.105 60 410 59.1046 410 58V42C410 40.8954 409.105 40 408 40H402C400.895 40 400 39.1046 400 38V32ZM396 42C397.105 42 398 42.8954 398 44V48C398 49.1046 397.105 50 396 50H374C372.895 50 372 49.1046 372 48V44C372 42.8954 372.895 42 374 42H396ZM240 32C240 30.8954 240.895 30 242 30H250C251.105 30 252 30.8954 252 32V66C252 67.1046 252.895 68 254 68H276C277.105 68 278 67.1046 278 66V32C278 30.8954 278.895 30 280 30H288C289.105 30 290 30.8954 290 32V68C290 69.1046 289.105 70 288 70H282C280.895 70 280 70.8954 280 72V78C280 79.1046 279.105 80 278 80H252C250.895 80 250 79.1046 250 78V72C250 70.8954 249.105 70 248 70H242C240.895 70 240 69.1046 240 68V32ZM340 32C340 30.8954 339.105 30 338 30H314C312.895 30 312 29.1046 312 28V12C312 10.8954 311.105 10 310 10H302C300.895 10 300 10.8954 300 12V78C300 79.1046 300.895 80 302 80H310C311.105 80 312 79.1046 312 78V44C312 42.8954 312.895 42 314 42H336C337.105 42 338 42.8954 338 44V66C338 67.1046 337.105 68 336 68H322C320.895 68 320 68.8954 320 70V78C320 79.1046 320.895 80 322 80H338C339.105 80 340 79.1046 340 78V72C340 70.8954 340.895 70 342 70H348C349.105 70 350 69.1046 350 68V42C350 40.8954 349.105 40 348 40H342C340.895 40 340 39.1046 340 38V32ZM458 66C458 67.1046 457.105 68 456 68H422C420.895 68 420 68.8954 420 70V78C420 79.1046 420.895 80 422 80H458C459.105 80 460 79.1046 460 78V72C460 70.8954 460.895 70 462 70H468C469.105 70 470 69.1046 470 68V62C470 60.8954 469.105 60 468 60H462C460.895 60 460 59.1046 460 58V52C460 50.8954 459.105 50 458 50H434C432.895 50 432 49.1046 432 48V44C432 42.8954 432.895 42 434 42H468C469.105 42 470 41.1046 470 40V32C470 30.8954 469.105 30 468 30H432C430.895 30 430 30.8954 430 32V38C430 39.1046 429.105 40 428 40H422C420.895 40 420 40.8954 420 42V48C420 49.1046 420.895 50 422 50H428C429.105 50 430 50.8954 430 52V58C430 59.1046 430.895 60 432 60H456C457.105 60 458 60.8954 458 62V66Z" fill="url(#paint1_linear_201_61)"/>
<defs>
<linearGradient id="paint0_linear_201_61" x1="240" y1="10" x2="240" y2="80" gradientUnits="userSpaceOnUse">
<stop stop-color="#161616"/>
<stop offset="1"/>
</linearGradient>
<linearGradient id="paint1_linear_201_61" x1="240" y1="10" x2="240" y2="80" gradientUnits="userSpaceOnUse">
<stop stop-color="white"/>
<stop offset="0.0001" stop-color="white"/>
<stop offset="1" stop-color="#F4F4FF"/>
</linearGradient>
</defs>
</svg>
