<svg width="480" height="294" viewBox="0 0 480 294" fill="none" xmlns="http://www.w3.org/2000/svg">
<g clip-path="url(#clip0_201_52)">
<path d="M242.451 7.64212L240 6.26326L237.549 7.64212L117.549 75.1421L115 76.5758V79.5V214.5V217.424L117.549 218.858L237.549 286.358L240 287.737L242.451 286.358L362.451 218.858L365 217.424V214.5V79.5V76.5758L362.451 75.1421L242.451 7.64212Z" stroke="url(#paint0_linear_201_52)" stroke-width="10"/>
<path d="M120 214.5V79.5L240 147V282L120 214.5Z" fill="#AAAABA"/>
<path d="M240 147V282L360 214.5V79.5L240 147Z" fill="#848494"/>
<path d="M120 79.5L240 12L360 79.5L240 147L120 79.5Z" fill="#F4F4FF"/>
<path d="M144 112H276C278.209 112 280 110.209 280 108V96C280 93.7909 281.791 92 284 92H328C330.209 92 332 93.7909 332 96V108C332 110.209 333.791 112 336 112H360V202H120V92H136C138.209 92 140 93.7909 140 96V108C140 110.209 141.791 112 144 112Z" fill="#020021" fill-opacity="0.2"/>
<rect x="120" y="122" width="240" height="70" fill="#020020" fill-opacity="0.4"/>
<path d="M180 124V130C180 131.105 180.895 132 182 132H188C189.105 132 190 131.105 190 130V124C190 122.895 190.895 122 192 122H260C261.105 122 262 122.895 262 124V158C262 159.105 262.895 160 264 160H266C267.105 160 268 159.105 268 158V124C268 122.895 268.895 122 270 122H288C289.105 122 290 121.105 290 120V104C290 102.895 290.895 102 292 102H320C321.105 102 322 102.895 322 104V120C322 121.105 322.895 122 324 122H348C349.105 122 350 122.895 350 124V130C350 131.105 350.895 132 352 132H358C359.105 132 360 131.105 360 130V124C360 122.895 360.895 122 362 122H408C409.105 122 410 122.895 410 124V130C410 131.105 410.895 132 412 132H418C419.105 132 420 131.105 420 130V124C420 122.895 420.895 122 422 122H478C479.105 122 480 122.895 480 124V180C480 181.105 479.105 182 478 182H472C470.895 182 470 182.895 470 184V190C470 191.105 469.105 192 468 192H362C360.895 192 360 191.105 360 190V184C360 182.895 359.105 182 358 182H352C350.895 182 350 182.895 350 184V190C350 191.105 349.105 192 348 192H192C190.895 192 190 191.105 190 190V184C190 182.895 189.105 182 188 182H182C180.895 182 180 182.895 180 184V190C180 191.105 179.105 192 178 192H12C10.8954 192 10 191.105 10 190V184C10 182.895 9.10457 182 8 182H2C0.895431 182 0 181.105 0 180V134C0 132.895 0.89543 132 2 132H8C9.10457 132 10 131.105 10 130V124C10 122.895 10.8954 122 12 122H58C59.1046 122 60 122.895 60 124V130C60 131.105 60.8954 132 62 132H68C69.1046 132 70 131.105 70 130V124C70 122.895 70.8954 122 72 122H96C97.1046 122 98 121.105 98 120V104C98 102.895 98.8954 102 100 102H128C129.105 102 130 102.895 130 104V120C130 121.105 130.895 122 132 122H178C179.105 122 180 122.895 180 124Z" fill="url(#paint1_linear_201_52)"/>
<path fill-rule="evenodd" clip-rule="evenodd" d="M120 114C120 112.895 119.105 112 118 112H110C108.895 112 108 112.895 108 114V130C108 131.105 107.105 132 106 132H82C80.8954 132 80 132.895 80 134V140C80 141.105 79.1046 142 78 142H72C70.8954 142 70 142.895 70 144V170C70 171.105 70.8954 172 72 172H78C79.1046 172 80 172.895 80 174V180C80 181.105 80.8954 182 82 182H98C99.1046 182 100 181.105 100 180V172C100 170.895 99.1046 170 98 170H84C82.8954 170 82 169.105 82 168V146C82 144.895 82.8954 144 84 144H106C107.105 144 108 144.895 108 146V180C108 181.105 108.895 182 110 182H118C119.105 182 120 181.105 120 180V114ZM50 134C50 132.895 49.1046 132 48 132H22C20.8954 132 20 132.895 20 134V140C20 141.105 19.1046 142 18 142H12C10.8954 142 10 142.895 10 144V170C10 171.105 10.8954 172 12 172H18C19.1046 172 20 172.895 20 174V180C20 181.105 20.8954 182 22 182H38C39.1046 182 40 181.105 40 180V172C40 170.895 39.1046 170 38 170H24C22.8954 170 22 169.105 22 168V146C22 144.895 22.8954 144 24 144H46C47.1046 144 48 144.895 48 146V180C48 181.105 48.8954 182 50 182H58C59.1046 182 60 181.105 60 180V144C60 142.895 59.1046 142 58 142H52C50.8954 142 50 141.105 50 140V134ZM140 134C140 132.895 140.895 132 142 132H168C169.105 132 170 132.895 170 134V140C170 141.105 170.895 142 172 142H178C179.105 142 180 142.895 180 144V170C180 171.105 179.105 172 178 172H172C170.895 172 170 172.895 170 174V180C170 181.105 169.105 182 168 182H142C140.895 182 140 181.105 140 180V174C140 172.895 139.105 172 138 172H132C130.895 172 130 171.105 130 170V144C130 142.895 130.895 142 132 142H138C139.105 142 140 141.105 140 140V134ZM166 170C167.105 170 168 169.105 168 168V146C168 144.895 167.105 144 166 144H144C142.895 144 142 144.895 142 146V168C142 169.105 142.895 170 144 170H166ZM200 134C200 132.895 200.895 132 202 132H228C229.105 132 230 132.895 230 134V142C230 143.105 229.105 144 228 144H204C202.895 144 202 144.895 202 146V168C202 169.105 202.895 170 204 170H228C229.105 170 230 170.895 230 172V180C230 181.105 229.105 182 228 182H202C200.895 182 200 181.105 200 180V174C200 172.895 199.105 172 198 172H192C190.895 172 190 171.105 190 170V144C190 142.895 190.895 142 192 142H198C199.105 142 200 141.105 200 140V134ZM400 134C400 132.895 399.105 132 398 132H372C370.895 132 370 132.895 370 134V140C370 141.105 369.105 142 368 142H362C360.895 142 360 142.895 360 144V170C360 171.105 360.895 172 362 172H368C369.105 172 370 172.895 370 174V180C370 181.105 370.895 182 372 182H408C409.105 182 410 181.105 410 180V172C410 170.895 409.105 170 408 170H374C372.895 170 372 169.105 372 168V164C372 162.895 372.895 162 374 162H398H400H408C409.105 162 410 161.105 410 160V144C410 142.895 409.105 142 408 142H402C400.895 142 400 141.105 400 140V134ZM396 144C397.105 144 398 144.895 398 146V150C398 151.105 397.105 152 396 152H374C372.895 152 372 151.105 372 150V146C372 144.895 372.895 144 374 144H396ZM240 134C240 132.895 240.895 132 242 132H250C251.105 132 252 132.895 252 134V168C252 169.105 252.895 170 254 170H276C277.105 170 278 169.105 278 168V134C278 132.895 278.895 132 280 132H288C289.105 132 290 132.895 290 134V170C290 171.105 289.105 172 288 172H282C280.895 172 280 172.895 280 174V180C280 181.105 279.105 182 278 182H252C250.895 182 250 181.105 250 180V174C250 172.895 249.105 172 248 172H242C240.895 172 240 171.105 240 170V134ZM340 134C340 132.895 339.105 132 338 132H314C312.895 132 312 131.105 312 130V114C312 112.895 311.105 112 310 112H302C300.895 112 300 112.895 300 114V180C300 181.105 300.895 182 302 182H310C311.105 182 312 181.105 312 180V146C312 144.895 312.895 144 314 144H336C337.105 144 338 144.895 338 146V168C338 169.105 337.105 170 336 170H322C320.895 170 320 170.895 320 172V180C320 181.105 320.895 182 322 182H338C339.105 182 340 181.105 340 180V174C340 172.895 340.895 172 342 172H348C349.105 172 350 171.105 350 170V144C350 142.895 349.105 142 348 142H342C340.895 142 340 141.105 340 140V134ZM458 168C458 169.105 457.105 170 456 170H422C420.895 170 420 170.895 420 172V180C420 181.105 420.895 182 422 182H458C459.105 182 460 181.105 460 180V174C460 172.895 460.895 172 462 172H468C469.105 172 470 171.105 470 170V164C470 162.895 469.105 162 468 162H462C460.895 162 460 161.105 460 160V154C460 152.895 459.105 152 458 152H434C432.895 152 432 151.105 432 150V146C432 144.895 432.895 144 434 144H468C469.105 144 470 143.105 470 142V134C470 132.895 469.105 132 468 132H432C430.895 132 430 132.895 430 134V140C430 141.105 429.105 142 428 142H422C420.895 142 420 142.895 420 144V150C420 151.105 420.895 152 422 152H428C429.105 152 430 152.895 430 154V160C430 161.105 430.895 162 432 162H456C457.105 162 458 162.895 458 164V168Z" fill="url(#paint2_linear_201_52)"/>
</g>
<defs>
<linearGradient id="paint0_linear_201_52" x1="240" y1="12" x2="240" y2="282" gradientUnits="userSpaceOnUse">
<stop stop-color="#161616"/>
<stop offset="1"/>
</linearGradient>
<linearGradient id="paint1_linear_201_52" x1="240" y1="112" x2="240" y2="182" gradientUnits="userSpaceOnUse">
<stop stop-color="#161616"/>
<stop offset="1"/>
</linearGradient>
<linearGradient id="paint2_linear_201_52" x1="240" y1="112" x2="240" y2="182" gradientUnits="userSpaceOnUse">
<stop stop-color="white"/>
<stop offset="0.0001" stop-color="white"/>
<stop offset="1" stop-color="#F4F4FF"/>
</linearGradient>
<clipPath id="clip0_201_52">
<rect width="480" height="294" fill="white"/>
</clipPath>
</defs>
</svg>
