<svg width="490" height="294" viewBox="0 0 490 294" fill="none" xmlns="http://www.w3.org/2000/svg">
<g clip-path="url(#clip0_556_294)">
<path d="M122.549 75.1421L120 76.5758V79.5V214.5V217.424L122.549 218.858L242.549 286.358L245 287.737L247.451 286.358L367.451 218.858L370 217.424V214.5V79.5V76.5758L367.451 75.1421L247.451 7.64212L245 6.26326L242.549 7.64212L122.549 75.1421Z" stroke="url(#paint0_linear_556_294)" stroke-width="10"/>
<path d="M125 214.5V79.5L245 147V282L125 214.5Z" fill="#AAAABA"/>
<path d="M245 147V282L365 214.5V79.5L245 147Z" fill="#848494"/>
<path d="M125 79.5L245 12L365 79.5L245 147L125 79.5Z" fill="#F4F4FF"/>
<rect x="125" y="112" width="240" height="90" fill="#020021" fill-opacity="0.2"/>
<rect x="125" y="122" width="240" height="70" fill="#020020" fill-opacity="0.4"/>
<path fill-rule="evenodd" clip-rule="evenodd" d="M10 126C10 123.791 11.7909 122 14 122H56C58.2091 122 60 123.791 60 126V128C60 130.209 61.7909 132 64 132H66C68.2091 132 70 130.209 70 128V126C70 123.791 71.7909 122 74 122H116C118.209 122 120 123.791 120 126V128C120 130.209 121.791 132 124 132H126C128.209 132 130 130.209 130 128V126C130 123.791 131.791 122 134 122H176C178.209 122 180 123.791 180 126V128C180 130.209 181.791 132 184 132H186C188.209 132 190 130.209 190 128V126C190 123.791 191.791 122 194 122H236C238.209 122 240 123.791 240 126V128C240 130.209 241.791 132 244 132H246C248.209 132 250 130.209 250 128V126C250 123.791 251.791 122 254 122H296C298.209 122 300 123.791 300 126V128C300 130.209 301.791 132 304 132H306C308.209 132 310 130.209 310 128V126C310 123.791 311.791 122 314 122H356C358.209 122 360 123.791 360 126V128C360 130.209 361.791 132 364 132H366C368.209 132 370 130.209 370 128V126C370 123.791 371.791 122 374 122H416C418.209 122 420 123.791 420 126V128C420 130.209 421.791 132 424 132H426C428.209 132 430 130.209 430 128V126C430 123.791 431.791 122 434 122H476C478.209 122 480 123.791 480 126V128C480 130.209 481.791 132 484 132H486C488.209 132 490 133.791 490 136V188C490 190.209 488.209 192 486 192H14C11.7909 192 10 190.209 10 188V186C10 183.791 8.20914 182 6 182H4C1.79086 182 0 180.209 0 178V136C0 133.791 1.79086 132 4 132H6C8.20914 132 10 130.209 10 128V126Z" fill="url(#paint1_linear_556_294)"/>
<path fill-rule="evenodd" clip-rule="evenodd" d="M50 134C50 132.895 49.1046 132 48 132H22C20.8954 132 20 132.895 20 134V140C20 141.105 19.1046 142 18 142H12C10.8954 142 10 142.895 10 144V170C10 171.105 10.8954 172 12 172H18C19.1046 172 20 172.895 20 174V180C20 181.105 20.8954 182 22 182H38C39.1046 182 40 181.105 40 180V172C40 170.895 39.1046 170 38 170H24C22.8954 170 22 169.105 22 168V146C22 144.895 22.8954 144 24 144H46C47.1046 144 48 144.895 48 146V180C48 181.105 48.8954 182 50 182H58C59.1046 182 60 181.105 60 180V144C60 142.895 59.1046 142 58 142H52C50.8954 142 50 141.105 50 140V134Z" fill="url(#paint2_linear_556_294)"/>
<path fill-rule="evenodd" clip-rule="evenodd" d="M110 134C110 132.895 109.105 132 108 132H82C80.8954 132 80 132.895 80 134V140C80 141.105 79.1046 142 78 142H72C70.8954 142 70 142.895 70 144V170C70 171.105 70.8954 172 72 172H78C79.1046 172 80 172.895 80 174V180C80 181.105 80.8954 182 82 182H98C99.1046 182 100 181.105 100 180V172C100 170.895 99.1046 170 98 170H84C82.8954 170 82 169.105 82 168V146C82 144.895 82.8954 144 84 144H106C107.105 144 108 144.895 108 146V180C108 181.105 108.895 182 110 182H118C119.105 182 120 181.105 120 180V144C120 142.895 119.105 142 118 142H112C110.895 142 110 141.105 110 140V134Z" fill="url(#paint3_linear_556_294)"/>
<path fill-rule="evenodd" clip-rule="evenodd" d="M170 134C170 132.895 169.105 132 168 132H142C140.895 132 140 132.895 140 134V140C140 141.105 139.105 142 138 142H132C130.895 142 130 142.895 130 144V170C130 171.105 130.895 172 132 172H138C139.105 172 140 172.895 140 174V180C140 181.105 140.895 182 142 182H158C159.105 182 160 181.105 160 180V172C160 170.895 159.105 170 158 170H144C142.895 170 142 169.105 142 168V146C142 144.895 142.895 144 144 144H166C167.105 144 168 144.895 168 146V180C168 181.105 168.895 182 170 182H178C179.105 182 180 181.105 180 180V144C180 142.895 179.105 142 178 142H172C170.895 142 170 141.105 170 140V134Z" fill="url(#paint4_linear_556_294)"/>
<path fill-rule="evenodd" clip-rule="evenodd" d="M230 134C230 132.895 229.105 132 228 132H202C200.895 132 200 132.895 200 134V140C200 141.105 199.105 142 198 142H192C190.895 142 190 142.895 190 144V170C190 171.105 190.895 172 192 172H198C199.105 172 200 172.895 200 174V180C200 181.105 200.895 182 202 182H218C219.105 182 220 181.105 220 180V172C220 170.895 219.105 170 218 170H204C202.895 170 202 169.105 202 168V146C202 144.895 202.895 144 204 144H226C227.105 144 228 144.895 228 146V180C228 181.105 228.895 182 230 182H238C239.105 182 240 181.105 240 180V144C240 142.895 239.105 142 238 142H232C230.895 142 230 141.105 230 140V134Z" fill="url(#paint5_linear_556_294)"/>
<path fill-rule="evenodd" clip-rule="evenodd" d="M290 134C290 132.895 289.105 132 288 132H262C260.895 132 260 132.895 260 134V140C260 141.105 259.105 142 258 142H252C250.895 142 250 142.895 250 144V170C250 171.105 250.895 172 252 172H258C259.105 172 260 172.895 260 174V180C260 181.105 260.895 182 262 182H278C279.105 182 280 181.105 280 180V172C280 170.895 279.105 170 278 170H264C262.895 170 262 169.105 262 168V146C262 144.895 262.895 144 264 144H286C287.105 144 288 144.895 288 146V180C288 181.105 288.895 182 290 182H298C299.105 182 300 181.105 300 180V144C300 142.895 299.105 142 298 142H292C290.895 142 290 141.105 290 140V134Z" fill="url(#paint6_linear_556_294)"/>
<path fill-rule="evenodd" clip-rule="evenodd" d="M350 134C350 132.895 349.105 132 348 132H322C320.895 132 320 132.895 320 134V140C320 141.105 319.105 142 318 142H312C310.895 142 310 142.895 310 144V170C310 171.105 310.895 172 312 172H318C319.105 172 320 172.895 320 174V180C320 181.105 320.895 182 322 182H338C339.105 182 340 181.105 340 180V172C340 170.895 339.105 170 338 170H324C322.895 170 322 169.105 322 168V146C322 144.895 322.895 144 324 144H346C347.105 144 348 144.895 348 146V180C348 181.105 348.895 182 350 182H358C359.105 182 360 181.105 360 180V144C360 142.895 359.105 142 358 142H352C350.895 142 350 141.105 350 140V134Z" fill="url(#paint7_linear_556_294)"/>
<path fill-rule="evenodd" clip-rule="evenodd" d="M410 134C410 132.895 409.105 132 408 132H382C380.895 132 380 132.895 380 134V140C380 141.105 379.105 142 378 142H372C370.895 142 370 142.895 370 144V170C370 171.105 370.895 172 372 172H378C379.105 172 380 172.895 380 174V180C380 181.105 380.895 182 382 182H398C399.105 182 400 181.105 400 180V172C400 170.895 399.105 170 398 170H384C382.895 170 382 169.105 382 168V146C382 144.895 382.895 144 384 144H406C407.105 144 408 144.895 408 146V180C408 181.105 408.895 182 410 182H418C419.105 182 420 181.105 420 180V144C420 142.895 419.105 142 418 142H412C410.895 142 410 141.105 410 140V134Z" fill="url(#paint8_linear_556_294)"/>
<path fill-rule="evenodd" clip-rule="evenodd" d="M470 134C470 132.895 469.105 132 468 132H442C440.895 132 440 132.895 440 134V140C440 141.105 439.105 142 438 142H432C430.895 142 430 142.895 430 144V170C430 171.105 430.895 172 432 172H438C439.105 172 440 172.895 440 174V180C440 181.105 440.895 182 442 182H458C459.105 182 460 181.105 460 180V172C460 170.895 459.105 170 458 170H444C442.895 170 442 169.105 442 168V146C442 144.895 442.895 144 444 144H466C467.105 144 468 144.895 468 146V180C468 181.105 468.895 182 470 182H478C479.105 182 480 181.105 480 180V144C480 142.895 479.105 142 478 142H472C470.895 142 470 141.105 470 140V134Z" fill="url(#paint9_linear_556_294)"/>
</g>
<defs>
<linearGradient id="paint0_linear_556_294" x1="245" y1="12" x2="245" y2="282" gradientUnits="userSpaceOnUse">
<stop stop-color="#161616"/>
<stop offset="1"/>
</linearGradient>
<linearGradient id="paint1_linear_556_294" x1="245" y1="137.556" x2="245" y2="176.444" gradientUnits="userSpaceOnUse">
<stop stop-color="#161616"/>
<stop offset="1"/>
</linearGradient>
<linearGradient id="paint2_linear_556_294" x1="240" y1="112" x2="240" y2="182" gradientUnits="userSpaceOnUse">
<stop stop-color="white"/>
<stop offset="0.0001" stop-color="white"/>
<stop offset="1" stop-color="#F4F4FF"/>
</linearGradient>
<linearGradient id="paint3_linear_556_294" x1="240" y1="112" x2="240" y2="182" gradientUnits="userSpaceOnUse">
<stop stop-color="white"/>
<stop offset="0.0001" stop-color="white"/>
<stop offset="1" stop-color="#F4F4FF"/>
</linearGradient>
<linearGradient id="paint4_linear_556_294" x1="240" y1="112" x2="240" y2="182" gradientUnits="userSpaceOnUse">
<stop stop-color="white"/>
<stop offset="0.0001" stop-color="white"/>
<stop offset="1" stop-color="#F4F4FF"/>
</linearGradient>
<linearGradient id="paint5_linear_556_294" x1="240" y1="112" x2="240" y2="182" gradientUnits="userSpaceOnUse">
<stop stop-color="white"/>
<stop offset="0.0001" stop-color="white"/>
<stop offset="1" stop-color="#F4F4FF"/>
</linearGradient>
<linearGradient id="paint6_linear_556_294" x1="240" y1="112" x2="240" y2="182" gradientUnits="userSpaceOnUse">
<stop stop-color="white"/>
<stop offset="0.0001" stop-color="white"/>
<stop offset="1" stop-color="#F4F4FF"/>
</linearGradient>
<linearGradient id="paint7_linear_556_294" x1="240" y1="112" x2="240" y2="182" gradientUnits="userSpaceOnUse">
<stop stop-color="white"/>
<stop offset="0.0001" stop-color="white"/>
<stop offset="1" stop-color="#F4F4FF"/>
</linearGradient>
<linearGradient id="paint8_linear_556_294" x1="240" y1="112" x2="240" y2="182" gradientUnits="userSpaceOnUse">
<stop stop-color="white"/>
<stop offset="0.0001" stop-color="white"/>
<stop offset="1" stop-color="#F4F4FF"/>
</linearGradient>
<linearGradient id="paint9_linear_556_294" x1="240" y1="112" x2="240" y2="182" gradientUnits="userSpaceOnUse">
<stop stop-color="white"/>
<stop offset="0.0001" stop-color="white"/>
<stop offset="1" stop-color="#F4F4FF"/>
</linearGradient>
<clipPath id="clip0_556_294">
<rect width="490" height="294" fill="white"/>
</clipPath>
</defs>
</svg>
