<svg width="480" height="294" viewBox="0 0 480 294" fill="none" xmlns="http://www.w3.org/2000/svg">
<g clip-path="url(#clip0_556_439)">
<path d="M242.451 7.64212L240 6.26326L237.549 7.64212L117.549 75.1421L115 76.5758V79.5V214.5V217.424L117.549 218.858L237.549 286.358L240 287.737L242.451 286.358L362.451 218.858L365 217.424V214.5V79.5V76.5758L362.451 75.1421L242.451 7.64212Z" stroke="url(#paint0_linear_556_439)" stroke-width="10"/>
<path d="M120 214.5V79.5L240 147V282L120 214.5Z" fill="#AAAABA"/>
<path d="M240 147V282L360 214.5V79.5L240 147Z" fill="#848494"/>
<path d="M120 79.5L240 12L360 79.5L240 147L120 79.5Z" fill="#F4F4FF"/>
<path d="M146 112H274C277.314 112 280 109.314 280 106V98C280 94.6863 282.686 92 286 92H326C329.314 92 332 94.6863 332 98V106C332 109.314 334.686 112 338 112H360V202H120V92H134C137.314 92 140 94.6863 140 98V106C140 109.314 142.686 112 146 112Z" fill="#020021" fill-opacity="0.2"/>
<rect x="120" y="122" width="240" height="70" fill="#020020" fill-opacity="0.4"/>
<path fill-rule="evenodd" clip-rule="evenodd" d="M98 106C98 103.791 99.7909 102 102 102H126C128.209 102 130 103.791 130 106V118C130 120.209 131.791 122 134 122H176C178.209 122 180 123.791 180 126V128C180 130.209 181.791 132 184 132H186C188.209 132 190 130.209 190 128V126C190 123.791 191.791 122 194 122H286C288.209 122 290 120.209 290 118V106C290 103.791 291.791 102 294 102H318C320.209 102 322 103.791 322 106V118C322 120.209 323.791 122 326 122H378C380.209 122 382 123.791 382 126V157C382 158.657 383.343 160 385 160V160C386.657 160 388 158.657 388 157V126C388 123.791 389.791 122 392 122H476C478.209 122 480 123.791 480 126V178C480 180.209 478.209 182 476 182H474C471.791 182 470 183.791 470 186V188C470 190.209 468.209 192 466 192H364C361.791 192 360 190.209 360 188V186C360 183.791 358.209 182 356 182H354C351.791 182 350 183.791 350 186V188C350 190.209 348.209 192 346 192H74C71.7909 192 70 190.209 70 188V186C70 183.791 68.2091 182 66 182H64C61.7909 182 60 183.791 60 186V188C60 190.209 58.2091 192 56 192H14C11.7909 192 10 190.209 10 188V186C10 183.791 8.20914 182 6 182H4C1.79086 182 0 180.209 0 178V136C0 133.791 1.79086 132 4 132H6C8.20914 132 10 130.209 10 128V126C10 123.791 11.7909 122 14 122H56C58.2091 122 60 123.791 60 126V128C60 130.209 61.7909 132 64 132H66C68.2091 132 70 130.209 70 128V126C70 123.791 71.7909 122 74 122H94C96.2091 122 98 120.209 98 118V106Z" fill="url(#paint1_linear_556_439)"/>
<path fill-rule="evenodd" clip-rule="evenodd" d="M120 114C120 112.895 119.105 112 118 112H110C108.895 112 108 112.895 108 114V130C108 131.105 107.105 132 106 132H82C80.8954 132 80 132.895 80 134V140C80 141.105 79.1046 142 78 142H72C70.8954 142 70 142.895 70 144V170C70 171.105 70.8954 172 72 172H78C79.1046 172 80 172.895 80 174V180C80 181.105 80.8954 182 82 182H98C99.1046 182 100 181.105 100 180V172C100 170.895 99.1046 170 98 170H84C82.8954 170 82 169.105 82 168V146C82 144.895 82.8954 144 84 144H106C107.105 144 108 144.895 108 146V180C108 181.105 108.895 182 110 182H118C119.105 182 120 181.105 120 180V114ZM170 134C170 132.895 169.105 132 168 132H142C140.895 132 140 132.895 140 134V140C140 141.105 139.105 142 138 142H132C130.895 142 130 142.895 130 144V170C130 171.105 130.895 172 132 172H138C139.105 172 140 172.895 140 174V180C140 181.105 140.895 182 142 182H158C159.105 182 160 181.105 160 180V172C160 170.895 159.105 170 158 170H144C142.895 170 142 169.105 142 168V146C142 144.895 142.895 144 144 144H166C167.105 144 168 144.895 168 146V180C168 181.105 168.895 182 170 182H178C179.105 182 180 181.105 180 180V144C180 142.895 179.105 142 178 142H172C170.895 142 170 141.105 170 140V134ZM20 134C20 132.895 20.8954 132 22 132H48C49.1046 132 50 132.895 50 134V140C50 141.105 50.8954 142 52 142H58C59.1046 142 60 142.895 60 144V170C60 171.105 59.1046 172 58 172H52C50.8954 172 50 172.895 50 174V180C50 181.105 49.1046 182 48 182H22C20.8954 182 20 181.105 20 180V174C20 172.895 19.1046 172 18 172H12C10.8954 172 10 171.105 10 170V144C10 142.895 10.8954 142 12 142H18C19.1046 142 20 141.105 20 140V134ZM46 170C47.1046 170 48 169.105 48 168V146C48 144.895 47.1046 144 46 144H24C22.8954 144 22 144.895 22 146V168C22 169.105 22.8954 170 24 170H46ZM200 134C200 132.895 200.895 132 202 132H228C229.105 132 230 132.895 230 134V142C230 143.105 229.105 144 228 144H204C202.895 144 202 144.895 202 146V168C202 169.105 202.895 170 204 170H228C229.105 170 230 170.895 230 172V180C230 181.105 229.105 182 228 182H202C200.895 182 200 181.105 200 180V174C200 172.895 199.105 172 198 172H192C190.895 172 190 171.105 190 170V144C190 142.895 190.895 142 192 142H198C199.105 142 200 141.105 200 140V134ZM280 134C280 132.895 279.105 132 278 132H252C250.895 132 250 132.895 250 134V140C250 141.105 249.105 142 248 142H242C240.895 142 240 142.895 240 144V170C240 171.105 240.895 172 242 172H248C249.105 172 250 172.895 250 174V180C250 181.105 250.895 182 252 182H288C289.105 182 290 181.105 290 180V172C290 170.895 289.105 170 288 170H254C252.895 170 252 169.105 252 168V164C252 162.895 252.895 162 254 162H288C289.105 162 290 161.105 290 160V144C290 142.895 289.105 142 288 142H282C280.895 142 280 141.105 280 140V134ZM276 144C277.105 144 278 144.895 278 146V150C278 151.105 277.105 152 276 152H254C252.895 152 252 151.105 252 150V146C252 144.895 252.895 144 254 144H276ZM360 134C360 132.895 360.895 132 362 132H370C371.105 132 372 132.895 372 134V168C372 169.105 372.895 170 374 170H396C397.105 170 398 169.105 398 168V134C398 132.895 398.895 132 400 132H408C409.105 132 410 132.895 410 134V170C410 171.105 409.105 172 408 172H402C400.895 172 400 172.895 400 174V180C400 181.105 399.105 182 398 182H372C370.895 182 370 181.105 370 180V174C370 172.895 369.105 172 368 172H362C360.895 172 360 171.105 360 170V134ZM340 134C340 132.895 339.105 132 338 132H314C312.895 132 312 131.105 312 130V114C312 112.895 311.105 112 310 112H302C300.895 112 300 112.895 300 114V180C300 181.105 300.895 182 302 182H310C311.105 182 312 181.105 312 180V146C312 144.895 312.895 144 314 144H336C337.105 144 338 144.895 338 146V168C338 169.105 337.105 170 336 170H322C320.895 170 320 170.895 320 172V180C320 181.105 320.895 182 322 182H338C339.105 182 340 181.105 340 180V174C340 172.895 340.895 172 342 172H348C349.105 172 350 171.105 350 170V144C350 142.895 349.105 142 348 142H342C340.895 142 340 141.105 340 140V134ZM458 168C458 169.105 457.105 170 456 170H422C420.895 170 420 170.895 420 172V180C420 181.105 420.895 182 422 182H458C459.105 182 460 181.105 460 180V174C460 172.895 460.895 172 462 172H468C469.105 172 470 171.105 470 170V164C470 162.895 469.105 162 468 162H462C460.895 162 460 161.105 460 160V154C460 152.895 459.105 152 458 152H434C432.895 152 432 151.105 432 150V146C432 144.895 432.895 144 434 144H468C469.105 144 470 143.105 470 142V134C470 132.895 469.105 132 468 132H432C430.895 132 430 132.895 430 134V140C430 141.105 429.105 142 428 142H422C420.895 142 420 142.895 420 144V150C420 151.105 420.895 152 422 152H428C429.105 152 430 152.895 430 154V160C430 161.105 430.895 162 432 162H456C457.105 162 458 162.895 458 164V168Z" fill="url(#paint2_linear_556_439)"/>
</g>
<defs>
<linearGradient id="paint0_linear_556_439" x1="240" y1="12" x2="240" y2="282" gradientUnits="userSpaceOnUse">
<stop stop-color="#161616"/>
<stop offset="1"/>
</linearGradient>
<linearGradient id="paint1_linear_556_439" x1="240" y1="112" x2="240" y2="182" gradientUnits="userSpaceOnUse">
<stop stop-color="#161616"/>
<stop offset="1"/>
</linearGradient>
<linearGradient id="paint2_linear_556_439" x1="240" y1="112" x2="240" y2="182" gradientUnits="userSpaceOnUse">
<stop stop-color="white"/>
<stop offset="0.0001" stop-color="white"/>
<stop offset="1" stop-color="#F4F4FF"/>
</linearGradient>
<clipPath id="clip0_556_439">
<rect width="480" height="294" fill="white"/>
</clipPath>
</defs>
</svg>
